<svg width="140" height="36" viewBox="0 0 140 36" fill="none" xmlns="http://www.w3.org/2000/svg">
<path d="M110.156 16.0312C110.552 16.0521 110.906 16.0625 111.219 16.0625C111.552 16.0417 111.833 16.0208 112.062 16C112.333 15.9792 112.573 15.9583 112.781 15.9375C113.094 15.8958 113.417 15.8438 113.75 15.7812C114.042 15.7396 114.344 15.6875 114.656 15.625C114.99 15.5417 115.312 15.4479 115.625 15.3438C115.5 15.6562 115.396 15.9271 115.312 16.1562C115.229 16.3854 115.167 16.5833 115.125 16.75C115.062 16.9375 115.031 17.0938 115.031 17.2188C115.01 17.3646 115 17.5417 115 17.75C114.979 18.1042 114.979 18.6771 115 19.4688C116.083 18.5312 116.99 17.8021 117.719 17.2812C118.469 16.7604 119.062 16.3542 119.5 16.0625C120.021 15.7292 120.427 15.5104 120.719 15.4062C121.49 15.2812 122.167 15.4583 122.75 15.9375C123 16.1458 123.24 16.4271 123.469 16.7812C123.698 17.1146 123.896 17.5625 124.062 18.125C124.229 18.6875 124.354 19.3646 124.438 20.1562C124.521 20.9271 124.531 21.8542 124.469 22.9375C124.031 22.9792 123.635 23.0208 123.281 23.0625C122.948 23.1042 122.667 23.1354 122.438 23.1562C122.167 23.1979 121.917 23.2188 121.688 23.2188L120.844 23.3125C120.552 23.3542 120.188 23.3958 119.75 23.4375C119.333 23.4583 118.823 23.5 118.219 23.5625C119.094 22.8542 119.656 22.2396 119.906 21.7188C120.177 21.1771 120.292 20.7292 120.25 20.375C120.208 19.9792 120.021 19.6354 119.688 19.3438C119.292 19.1146 118.865 19.0312 118.406 19.0938C118.01 19.1354 117.552 19.3125 117.031 19.625C116.51 19.9375 115.958 20.5208 115.375 21.375C115.417 22.7083 115.458 23.8125 115.5 24.6875C115.562 25.5625 115.615 26.2708 115.656 26.8125C115.719 27.4375 115.771 27.9271 115.812 28.2812C115.875 28.5938 116 28.9271 116.188 29.2812C116.333 29.5729 116.542 29.8958 116.812 30.25C117.083 30.6042 117.438 30.9583 117.875 31.3125C116.958 31.2708 116.208 31.2708 115.625 31.3125C115.271 31.3333 114.958 31.3542 114.688 31.375C114.396 31.4167 114.083 31.4583 113.75 31.5C113.458 31.5417 113.115 31.5833 112.719 31.625C112.344 31.6875 111.927 31.75 111.469 31.8125C111.635 31.5833 111.771 31.3125 111.875 31C111.979 30.7083 112.062 30.4271 112.125 30.1562C112.208 29.8438 112.271 29.5208 112.312 29.1875C112.333 28.8958 112.344 28.4583 112.344 27.875C112.365 27.2917 112.354 26.6354 112.312 25.9062C112.292 25.1562 112.26 24.3854 112.219 23.5938C112.177 22.7812 112.125 22.0208 112.062 21.3125C112 20.6042 111.927 19.9896 111.844 19.4688C111.781 18.9271 111.708 18.5521 111.625 18.3438C111.521 18.0938 111.396 17.8438 111.25 17.5938C111.125 17.3646 110.969 17.125 110.781 16.875C110.594 16.6042 110.385 16.3229 110.156 16.0312ZM125.406 11.3125C126.031 11.375 126.552 11.4271 126.969 11.4688C127.406 11.5104 127.76 11.5417 128.031 11.5625C128.344 11.5833 128.594 11.5938 128.781 11.5938C128.969 11.6146 129.219 11.6146 129.531 11.5938C129.802 11.5729 130.156 11.5521 130.594 11.5312C131.031 11.4896 131.583 11.4271 132.25 11.3438C132.104 11.5521 131.99 11.7396 131.906 11.9062C131.823 12.0521 131.75 12.1875 131.688 12.3125L131.5 12.6875C131.458 12.8125 131.417 12.9375 131.375 13.0625C131.333 13.1667 131.292 13.2917 131.25 13.4375C131.229 13.5833 131.208 13.7396 131.188 13.9062H136L135.562 16.4375L131.156 16.1875C131.052 17.25 130.979 18.0729 130.938 18.6562C130.896 19.2396 130.854 19.6667 130.812 19.9375L130.75 20.5C130.688 21.2917 130.625 22.1562 130.562 23.0938C130.5 24.0104 130.479 24.8646 130.5 25.6562C130.521 26.4479 130.594 27.1146 130.719 27.6562C130.844 28.1771 131.062 28.4375 131.375 28.4375C131.688 28.4375 131.979 28.3542 132.25 28.1875C132.521 28.0208 132.75 27.8229 132.938 27.5938C133.146 27.3646 133.302 27.1354 133.406 26.9062C133.51 26.6562 133.562 26.4688 133.562 26.3438C133.562 26.2188 133.531 26.0729 133.469 25.9062C133.365 25.5938 133.177 25.1979 132.906 24.7188C133.51 24.8646 134.042 25.0104 134.5 25.1562C134.729 25.2396 134.938 25.3229 135.125 25.4062C135.333 25.4896 135.573 25.5833 135.844 25.6875C136.073 25.7917 136.365 25.9167 136.719 26.0625C137.073 26.2083 137.49 26.3854 137.969 26.5938C137.51 26.6771 137.177 26.8125 136.969 27C136.844 27.0833 136.75 27.1771 136.688 27.2812C136.542 27.5104 136.375 27.8229 136.188 28.2188C136 28.5938 135.719 28.9688 135.344 29.3438C134.969 29.7188 134.458 30.0521 133.812 30.3438C133.188 30.6354 132.344 30.8021 131.281 30.8438C130.177 30.8854 129.333 30.6979 128.75 30.2812C128.188 29.8646 127.771 29.3854 127.5 28.8438C127.25 28.2812 127.104 27.7292 127.062 27.1875C127.021 26.6458 126.99 26.2812 126.969 26.0938C126.948 25.9062 126.948 25.4375 126.969 24.6875C126.99 23.9375 127.021 23.1146 127.062 22.2188C127.104 21.3021 127.146 20.4271 127.188 19.5938C127.229 18.7396 127.25 18.1146 127.25 17.7188C127.25 17.5104 127.26 17.2917 127.281 17.0625C127.281 16.875 127.281 16.6771 127.281 16.4688C127.302 16.2396 127.312 16.0208 127.312 15.8125L122.781 15.7812L122.594 14L127.156 14.125C127.115 13.8958 127.062 13.6875 127 13.5C126.958 13.2917 126.917 13.125 126.875 13C126.812 12.8542 126.75 12.7292 126.688 12.625C126.604 12.5208 126.51 12.4062 126.406 12.2812C126.302 12.1771 126.167 12.0417 126 11.875C125.833 11.7083 125.635 11.5208 125.406 11.3125Z" fill="#FEFEFE"/>
<path d="M77.0625 9.84375C78.1042 9.90625 78.9792 9.95833 79.6875 10C80.4167 10.0208 81.0208 10.0417 81.5 10.0625C82.0417 10.0833 82.5 10.0833 82.875 10.0625C83.25 10.0417 83.7604 9.98958 84.4062 9.90625C84.9479 9.84375 85.6667 9.75 86.5625 9.625C87.4792 9.47917 88.6146 9.29167 89.9688 9.0625C89.4896 9.54167 89.1146 9.97917 88.8438 10.375C88.5938 10.75 88.3958 11.0729 88.25 11.3438C88.0833 11.6771 87.9688 11.9583 87.9062 12.1875C87.8646 12.3958 87.9062 12.9167 88.0312 13.75C88.1562 14.5833 88.3333 15.5729 88.5625 16.7188C88.7917 17.8438 89.0417 19.0521 89.3125 20.3438C89.5833 21.6146 89.8542 22.8125 90.125 23.9375C90.3958 25.0417 90.6354 25.9896 90.8438 26.7812C91.0729 27.5521 91.2396 28.0104 91.3438 28.1562C91.6562 28.5938 91.8542 28.8854 91.9375 29.0312C92.0208 29.1562 92.1667 29.2708 92.375 29.375C92.4583 29.4167 92.5938 29.4792 92.7812 29.5625C92.9479 29.6458 93.1667 29.75 93.4375 29.875C93.7292 30 94.0938 30.1458 94.5312 30.3125C93.7188 30.3542 93.0208 30.3854 92.4375 30.4062C91.8542 30.4062 91.375 30.4167 91 30.4375C90.5625 30.4583 90.1875 30.4792 89.875 30.5C89.5625 30.5 89.1875 30.5208 88.75 30.5625C88.375 30.6042 87.8854 30.6458 87.2812 30.6875C86.6979 30.7292 86.0104 30.7708 85.2188 30.8125C85.6354 30.5208 85.9688 30.2604 86.2188 30.0312C86.4896 29.7812 86.6979 29.5729 86.8438 29.4062C87.0104 29.1979 87.125 29.0104 87.1875 28.8438C87.2292 28.6562 87.2604 28.375 87.2812 28C87.3021 27.6667 87.3021 27.2292 87.2812 26.6875C87.2604 26.125 87.2083 25.3958 87.125 24.5L78.9062 25.3438C78.6979 25.6979 78.5417 26.0104 78.4375 26.2812C78.3333 26.5312 78.2604 26.75 78.2188 26.9375C78.1562 27.1667 78.1354 27.3542 78.1562 27.5C78.1979 27.6667 78.2708 27.8646 78.375 28.0938C78.4792 28.3021 78.625 28.5521 78.8125 28.8438C79.0208 29.1146 79.3229 29.4375 79.7188 29.8125C79.1979 29.7917 78.6667 29.7812 78.125 29.7812C77.5833 29.7812 77.0833 29.7917 76.625 29.8125C76.0833 29.8333 75.5521 29.8542 75.0312 29.875C74.5104 29.8958 73.9167 29.9271 73.25 29.9688C72.6875 30.0104 72.0312 30.0625 71.2812 30.125C70.5104 30.1667 69.6875 30.2292 68.8125 30.3125C69.3542 30.0625 69.8125 29.8125 70.1875 29.5625C70.5625 29.2917 70.875 29.0417 71.125 28.8125C71.4167 28.5625 71.6667 28.3229 71.875 28.0938C72.0208 27.8854 72.3125 27.4062 72.75 26.6562C73.1875 25.8854 73.6771 24.9792 74.2188 23.9375C74.7812 22.8958 75.3646 21.7812 75.9688 20.5938C76.5938 19.4062 77.1562 18.2917 77.6562 17.25C78.1562 16.1875 78.5625 15.2708 78.875 14.5C79.1875 13.7292 79.3438 13.2292 79.3438 13C79.3021 12.7292 79.1979 12.4271 79.0312 12.0938C78.8854 11.8021 78.6562 11.4688 78.3438 11.0938C78.0521 10.7188 77.625 10.3021 77.0625 9.84375ZM86.75 22.1875C86.625 21.4583 86.5104 20.8333 86.4062 20.3125C86.3021 19.7708 86.2188 19.3229 86.1562 18.9688C86.0729 18.5521 86.0104 18.1875 85.9688 17.875C85.9062 17.5833 85.8333 17.2083 85.75 16.75C85.6667 16.3542 85.5625 15.8646 85.4375 15.2812C85.3333 14.6771 85.1979 13.9583 85.0312 13.125C83.8438 15.5 82.9167 17.3438 82.25 18.6562C81.6042 19.9479 81.1354 20.8958 80.8438 21.5C80.4896 22.2083 80.2917 22.625 80.25 22.75L86.75 22.1875Z" fill="#FEFEFE"/>
<path d="M104.938 9.84375C103.896 9.90625 103.021 9.95833 102.312 10C101.583 10.0208 100.979 10.0417 100.5 10.0625C99.9583 10.0833 99.5 10.0833 99.125 10.0625C98.75 10.0417 98.2396 9.98958 97.5938 9.90625C97.0521 9.84375 96.3333 9.75 95.4375 9.625C94.5208 9.47917 93.3854 9.29167 92.0312 9.0625C92.5104 9.54167 92.8854 9.97917 93.1562 10.375C93.4062 10.75 93.6042 11.0729 93.75 11.3438C93.9167 11.6771 94.0312 11.9583 94.0938 12.1875C94.1354 12.3958 94.0938 12.9167 93.9688 13.75C93.8438 14.5833 93.6667 15.5729 93.4375 16.7188C93.2083 17.8438 92.9583 19.0521 92.6875 20.3438C92.4167 21.6146 92.1458 22.8125 91.875 23.9375C91.6042 25.0417 91.3646 25.9896 91.1562 26.7812C90.9271 27.5521 90.7604 28.0104 90.6562 28.1562C90.3438 28.5938 90.1458 28.8854 90.0625 29.0312C89.9792 29.1562 89.8333 29.2708 89.625 29.375C89.5417 29.4167 89.4062 29.4792 89.2188 29.5625C89.0521 29.6458 88.8333 29.75 88.5625 29.875C88.2708 30 87.9062 30.1458 87.4688 30.3125C88.2812 30.3542 88.9792 30.3854 89.5625 30.4062C90.1458 30.4062 90.625 30.4167 91 30.4375C91.4375 30.4583 91.8125 30.4792 92.125 30.5C92.4375 30.5 92.8125 30.5208 93.25 30.5625C93.625 30.6042 94.1146 30.6458 94.7188 30.6875C95.3021 30.7292 95.9896 30.7708 96.7812 30.8125C96.3646 30.5208 96.0312 30.2604 95.7812 30.0312C95.5104 29.7812 95.3021 29.5729 95.1562 29.4062C94.9896 29.1979 94.875 29.0104 94.8125 28.8438C94.7708 28.6562 94.7396 28.375 94.7188 28C94.6979 27.6667 94.6979 27.2292 94.7188 26.6875C94.7396 26.125 94.7917 25.3958 94.875 24.5L103.094 25.3438C103.302 25.6979 103.458 26.0104 103.562 26.2812C103.667 26.5312 103.74 26.75 103.781 26.9375C103.844 27.1667 103.865 27.3542 103.844 27.5C103.802 27.6667 103.729 27.8646 103.625 28.0938C103.521 28.3021 103.375 28.5521 103.188 28.8438C102.979 29.1146 102.677 29.4375 102.281 29.8125C102.802 29.7917 103.333 29.7812 103.875 29.7812C104.417 29.7812 104.917 29.7917 105.375 29.8125C105.917 29.8333 106.448 29.8542 106.969 29.875C107.49 29.8958 108.083 29.9271 108.75 29.9688C109.312 30.0104 109.969 30.0625 110.719 30.125C111.49 30.1667 112.312 30.2292 113.188 30.3125C112.646 30.0625 112.188 29.8125 111.812 29.5625C111.438 29.2917 111.125 29.0417 110.875 28.8125C110.583 28.5625 110.333 28.3229 110.125 28.0938C109.979 27.8854 109.688 27.4062 109.25 26.6562C108.812 25.8854 108.323 24.9792 107.781 23.9375C107.219 22.8958 106.635 21.7812 106.031 20.5938C105.406 19.4062 104.844 18.2917 104.344 17.25C103.844 16.1875 103.438 15.2708 103.125 14.5C102.812 13.7292 102.656 13.2292 102.656 13C102.698 12.7292 102.802 12.4271 102.969 12.0938C103.115 11.8021 103.344 11.4688 103.656 11.0938C103.948 10.7188 104.375 10.3021 104.938 9.84375ZM95.25 22.1875C95.375 21.4583 95.4896 20.8333 95.5938 20.3125C95.6979 19.7708 95.7812 19.3229 95.8438 18.9688C95.9271 18.5521 95.9896 18.1875 96.0312 17.875C96.0938 17.5833 96.1667 17.2083 96.25 16.75C96.3333 16.3542 96.4375 15.8646 96.5625 15.2812C96.6667 14.6771 96.8021 13.9583 96.9688 13.125C98.1562 15.5 99.0833 17.3438 99.75 18.6562C100.396 19.9479 100.865 20.8958 101.156 21.5C101.51 22.2083 101.708 22.625 101.75 22.75L95.25 22.1875Z" fill="#FEFEFE"/>
<path d="M0.71875 8.6875C1.42708 8.79167 2.05208 8.86458 2.59375 8.90625C3.15625 8.94792 3.625 8.98958 4 9.03125C4.4375 9.07292 4.8125 9.09375 5.125 9.09375H6.34375C7.15625 9.09375 8.5 9.0625 10.375 9C9.91667 9.14583 9.53125 9.35417 9.21875 9.625C8.92708 9.89583 8.6875 10.1771 8.5 10.4688C8.27083 10.8021 8.10417 11.1458 8 11.5C7.875 11.9375 7.76042 12.5208 7.65625 13.25C7.55208 13.8958 7.44792 14.7396 7.34375 15.7812C7.26042 16.8229 7.17708 18.125 7.09375 19.6875C7.98958 18.6667 8.77083 17.7604 9.4375 16.9688C10.125 16.1771 10.7188 15.4792 11.2188 14.875C11.7188 14.2708 12.1354 13.75 12.4688 13.3125C12.8229 12.875 13.1146 12.5 13.3438 12.1875C13.8854 11.4792 14.1979 11 14.2812 10.75C14.3021 10.6042 14.2917 10.4271 14.25 10.2188C14.2083 10.0521 14.1458 9.85417 14.0625 9.625C13.9792 9.375 13.8542 9.10417 13.6875 8.8125C14.5208 8.85417 15.2292 8.88542 15.8125 8.90625C16.4167 8.92708 16.9167 8.94792 17.3125 8.96875C17.7708 8.98958 18.1458 9 18.4375 9H19.75C20.2292 9 20.8542 9 21.625 9C22.3958 8.97917 23.3646 8.95833 24.5312 8.9375C23.7604 9.125 23.0312 9.375 22.3438 9.6875C21.6562 10 21.0417 10.3021 20.5 10.5938C19.875 10.9479 19.2917 11.3125 18.75 11.6875C18.2083 12.1042 17.6042 12.5938 16.9375 13.1562C16.375 13.6354 15.7188 14.2292 14.9688 14.9375C14.2188 15.625 13.4062 16.4271 12.5312 17.3438C13.4688 19.1771 14.2812 20.6875 14.9688 21.875C15.6771 23.0417 16.2708 23.9792 16.75 24.6875C17.2917 25.5208 17.75 26.1562 18.125 26.5938C18.5 26.9896 18.9375 27.3958 19.4375 27.8125C19.8542 28.1667 20.375 28.5625 21 29C21.625 29.4167 22.3438 29.8229 23.1562 30.2188L14.25 30.6562C14.375 30.4896 14.4479 30.2917 14.4688 30.0625C14.5104 29.8125 14.5312 29.5833 14.5312 29.375C14.5312 29.1458 14.5104 28.8958 14.4688 28.625C14.3854 28.2917 14.1667 27.75 13.8125 27C13.5208 26.3542 13.0729 25.4479 12.4688 24.2812C11.8646 23.0938 11.0312 21.5312 9.96875 19.5938L7.3125 22.375C7.20833 23.0417 7.15625 23.6458 7.15625 24.1875C7.15625 24.7292 7.17708 25.1771 7.21875 25.5312C7.28125 25.9688 7.36458 26.3438 7.46875 26.6562C7.59375 26.9688 7.77083 27.3229 8 27.7188C8.1875 28.0729 8.4375 28.4896 8.75 28.9688C9.0625 29.4479 9.45833 29.9792 9.9375 30.5625C9.45833 30.4375 8.97917 30.3542 8.5 30.3125C8.02083 30.25 7.58333 30.2083 7.1875 30.1875C6.72917 30.1667 6.29167 30.1771 5.875 30.2188C5.4375 30.2604 4.92708 30.3229 4.34375 30.4062C3.84375 30.4896 3.22917 30.5938 2.5 30.7188C1.77083 30.8438 0.9375 31 0 31.1875C0.458333 30.9167 0.822917 30.625 1.09375 30.3125C1.36458 30 1.58333 29.6979 1.75 29.4062C1.9375 29.0729 2.0625 28.75 2.125 28.4375C2.16667 28.1667 2.19792 27.5833 2.21875 26.6875C2.26042 25.7917 2.28125 24.75 2.28125 23.5625C2.30208 22.3542 2.30208 21.0833 2.28125 19.75C2.26042 18.4167 2.23958 17.1667 2.21875 16C2.19792 14.8333 2.16667 13.8438 2.125 13.0312C2.10417 12.1979 2.08333 11.6875 2.0625 11.5C2 11.2083 1.91667 10.8958 1.8125 10.5625C1.70833 10.2708 1.5625 9.96875 1.375 9.65625C1.20833 9.32292 0.989583 9 0.71875 8.6875ZM19.0938 16.5938C19.7188 16.6354 20.2708 16.6667 20.75 16.6875C21.25 16.7083 21.6667 16.7292 22 16.75C22.375 16.7708 22.7083 16.7812 23 16.7812C23.2917 16.7812 23.625 16.7708 24 16.75C24.3333 16.7292 24.7396 16.6979 25.2188 16.6562C25.7188 16.5938 26.2917 16.5104 26.9375 16.4062C26.4375 16.7188 26.0312 17.0104 25.7188 17.2812C25.4271 17.5312 25.1979 17.7604 25.0312 17.9688C24.8438 18.1979 24.7188 18.4062 24.6562 18.5938C24.6146 18.7604 24.5729 19.0938 24.5312 19.5938C24.5104 20.0729 24.4896 20.6354 24.4688 21.2812C24.4688 21.9062 24.4792 22.5729 24.5 23.2812C24.5208 23.9896 24.5521 24.6354 24.5938 25.2188C24.6354 25.7812 24.6979 26.2604 24.7812 26.6562C24.8646 27.0312 24.9688 27.2083 25.0938 27.1875C25.2604 27.0417 25.5312 26.5521 25.9062 25.7188C26.0521 25.3646 26.2292 24.9167 26.4375 24.375C26.6458 23.8125 26.8854 23.1354 27.1562 22.3438C27.4271 21.5312 27.7292 20.5833 28.0625 19.5C28.4167 18.4167 28.8125 17.1562 29.25 15.7188H31.9688C32.0521 17.1354 32.1458 18.375 32.25 19.4375C32.3542 20.5 32.4583 21.4271 32.5625 22.2188C32.6667 22.9896 32.7604 23.6458 32.8438 24.1875C32.9479 24.7083 33.0521 25.1354 33.1562 25.4688C33.3854 26.2604 33.6146 26.6875 33.8438 26.75C34.0312 26.7083 34.2292 26.4688 34.4375 26.0312C34.6667 25.5938 34.875 25.0521 35.0625 24.4062C35.2708 23.7604 35.4583 23.0625 35.625 22.3125C35.7917 21.5417 35.9375 20.8229 36.0625 20.1562C36.1875 19.4896 36.2708 18.9062 36.3125 18.4062C36.3542 17.9062 36.3542 17.5938 36.3125 17.4688C36.25 17.3438 36.125 17.1667 35.9375 16.9375C35.7708 16.75 35.5417 16.5208 35.25 16.25C34.9792 15.9792 34.6042 15.6562 34.125 15.2812C34.7083 15.3854 35.2604 15.4583 35.7812 15.5C36.3229 15.5208 36.8021 15.5417 37.2188 15.5625C37.6979 15.5833 38.1354 15.5833 38.5312 15.5625C38.9479 15.5625 39.4583 15.5521 40.0625 15.5312C40.5833 15.5104 41.2292 15.5 42 15.5C42.7917 15.5 43.7188 15.4792 44.7812 15.4375C43.8438 15.7292 43.0938 16.0104 42.5312 16.2812C41.9896 16.5312 41.5729 16.7708 41.2812 17C40.9271 17.25 40.6771 17.4896 40.5312 17.7188C40.3854 18.0312 40.1562 18.6875 39.8438 19.6875C39.7188 20.1042 39.5625 20.625 39.375 21.25C39.1875 21.8542 38.9688 22.5729 38.7188 23.4062C38.4688 24.2396 38.1875 25.2083 37.875 26.3125C37.5625 27.3958 37.2083 28.6354 36.8125 30.0312C36.5833 29.9896 36.3438 29.9688 36.0938 29.9688C35.8646 29.9479 35.6458 29.9375 35.4375 29.9375H34.7188C34.4688 29.9583 34.1979 29.9792 33.9062 30C33.6562 30.0208 33.3646 30.0521 33.0312 30.0938C32.6979 30.1354 32.3333 30.1875 31.9375 30.25L30.0625 22.6562L27 30.25L23.5 30.1562C23.0625 27.8021 22.7083 25.9271 22.4375 24.5312C22.1875 23.1146 21.9792 22.0312 21.8125 21.2812C21.625 20.4062 21.5 19.7917 21.4375 19.4375C21.3333 19.0625 21.1771 18.6979 20.9688 18.3438C20.8021 18.0521 20.5625 17.75 20.25 17.4375C19.9375 17.1042 19.5521 16.8229 19.0938 16.5938ZM43.9062 18.3438C44.0104 18.2188 44.0729 17.9896 44.0938 17.6562C44.1354 17.3021 44.2188 16.9062 44.3438 16.4688C44.4896 16.0312 44.7292 15.5729 45.0625 15.0938C45.3958 14.6146 45.9375 14.1667 46.6875 13.75C47.4167 13.3333 48.125 13.0833 48.8125 13C49.5 12.9167 50.1562 12.9479 50.7812 13.0938C51.4062 13.2396 51.9896 13.4688 52.5312 13.7812C53.0938 14.0938 53.6042 14.4375 54.0625 14.8125C54.375 15.0625 54.625 15.4271 54.8125 15.9062C55 16.3646 55.1458 16.8854 55.25 17.4688C55.3542 18.0521 55.4271 18.6667 55.4688 19.3125C55.5312 19.9375 55.5729 20.5521 55.5938 21.1562C55.6146 21.7396 55.625 22.2812 55.625 22.7812C55.6458 23.2604 55.6875 23.6562 55.75 23.9688C55.8333 24.4271 55.9792 24.8229 56.1875 25.1562C56.3958 25.4688 56.625 25.7396 56.875 25.9688C57.125 26.1771 57.375 26.3438 57.625 26.4688C57.875 26.5938 58.0938 26.6875 58.2812 26.75C58.4062 26.8125 58.5208 26.8542 58.625 26.875C58.8333 26.9583 58.9792 26.9583 59.0625 26.875C58.9375 27.1667 58.8229 27.4167 58.7188 27.625C58.6146 27.8333 58.5312 28.0104 58.4688 28.1562C58.3854 28.3229 58.3125 28.4583 58.25 28.5625C58.1875 28.6875 58.1146 28.8021 58.0312 28.9062C57.9688 29.0104 57.8854 29.125 57.7812 29.25C57.6771 29.375 57.5729 29.5104 57.4688 29.6562C57.1979 29.5521 56.9375 29.4271 56.6875 29.2812C56.4583 29.1354 56.25 29 56.0625 28.875C55.8333 28.7292 55.625 28.5833 55.4375 28.4375C55.25 28.2917 55.0729 28.125 54.9062 27.9375C54.7604 27.7708 54.6042 27.5938 54.4375 27.4062C54.2917 27.2188 54.1667 27.0104 54.0625 26.7812C53.9375 27.0521 53.6354 27.4375 53.1562 27.9375C52.6979 28.4375 52.0938 28.8958 51.3438 29.3125C50.5938 29.7083 49.7188 29.9896 48.7188 30.1562C47.7396 30.3229 46.6562 30.2083 45.4688 29.8125C44.9479 29.6458 44.4583 29.4062 44 29.0938C43.5417 28.7604 43.1458 28.3646 42.8125 27.9062C42.5 27.4479 42.2708 26.9271 42.125 26.3438C42 25.7396 42.0104 25.0729 42.1562 24.3438C42.3021 23.6146 42.5625 23 42.9375 22.5C43.3125 22 43.7604 21.5938 44.2812 21.2812C44.8021 20.9688 45.3854 20.7292 46.0312 20.5625C46.6771 20.3958 47.3438 20.2812 48.0312 20.2188C48.5729 20.1979 49.1146 20.2292 49.6562 20.3125C50.1146 20.3958 50.5938 20.5521 51.0938 20.7812C51.5938 20.9896 52.0208 21.3125 52.375 21.75C52.3542 20.6458 52.3125 19.7708 52.25 19.125C52.2083 18.4583 52.1667 17.9479 52.125 17.5938C52.0417 17.1771 51.9688 16.8854 51.9062 16.7188C51.8021 16.5729 51.6875 16.4062 51.5625 16.2188C51.4583 16.0312 51.3229 15.8646 51.1562 15.7188C50.9896 15.5521 50.7812 15.4167 50.5312 15.3125C50.2812 15.2083 49.9896 15.1667 49.6562 15.1875C49.3021 15.2083 49.0208 15.3021 48.8125 15.4688C48.6042 15.6354 48.4375 15.8333 48.3125 16.0625C48.2083 16.2708 48.1458 16.5 48.125 16.75C48.1042 17 48.1146 17.2188 48.1562 17.4062C48.1979 17.5312 48.2604 17.6667 48.3438 17.8125C48.4271 17.9375 48.5417 18.0729 48.6875 18.2188C48.8333 18.3646 49.0312 18.4896 49.2812 18.5938C48.8021 18.6562 48.375 18.7083 48 18.75C47.625 18.7708 47.3021 18.8021 47.0312 18.8438C46.7188 18.8854 46.4479 18.9167 46.2188 18.9375C45.9896 18.9583 45.7188 19 45.4062 19.0625C45.1354 19.1042 44.8021 19.1562 44.4062 19.2188C44.0104 19.2812 43.5521 19.3646 43.0312 19.4688C43.1562 19.3229 43.2708 19.1875 43.375 19.0625C43.4792 18.9167 43.5729 18.7917 43.6562 18.6875C43.7396 18.5625 43.8229 18.4479 43.9062 18.3438ZM48.5938 22.0625C48.2188 22.0833 47.8438 22.1771 47.4688 22.3438C47.0938 22.4896 46.7604 22.7083 46.4688 23C46.1771 23.2708 45.9271 23.5938 45.7188 23.9688C45.5312 24.3229 45.4375 24.7188 45.4375 25.1562C45.4375 25.5938 45.5417 25.9792 45.75 26.3125C45.9792 26.625 46.2708 26.8854 46.625 27.0938C47 27.3021 47.3958 27.4271 47.8125 27.4688C48.25 27.5104 48.6771 27.4688 49.0938 27.3438C49.4896 27.1979 49.8646 26.9688 50.2188 26.6562C50.5729 26.3229 50.875 25.9688 51.125 25.5938C51.375 25.1979 51.5521 24.8125 51.6562 24.4375C51.7604 24.0417 51.7708 23.7188 51.6875 23.4688C51.5208 22.9271 51.1458 22.5521 50.5625 22.3438C49.9792 22.1146 49.3229 22.0208 48.5938 22.0625ZM58.4375 16.0312C58.8333 16.0521 59.1875 16.0625 59.5 16.0625C59.8333 16.0417 60.1146 16.0208 60.3438 16C60.6146 15.9792 60.8542 15.9583 61.0625 15.9375C61.375 15.8958 61.6979 15.8438 62.0312 15.7812C62.3229 15.7396 62.625 15.6875 62.9375 15.625C63.2708 15.5417 63.5938 15.4479 63.9062 15.3438C63.7812 15.6562 63.6771 15.9271 63.5938 16.1562C63.5104 16.3854 63.4479 16.5833 63.4062 16.75C63.3438 16.9375 63.3125 17.0938 63.3125 17.2188C63.2917 17.3646 63.2812 17.5417 63.2812 17.75C63.2604 18.1042 63.2604 18.6771 63.2812 19.4688C64.3646 18.5312 65.2708 17.8021 66 17.2812C66.75 16.7604 67.3438 16.3542 67.7812 16.0625C68.3021 15.7292 68.7083 15.5104 69 15.4062C69.7708 15.2812 70.4479 15.4583 71.0312 15.9375C71.2812 16.1458 71.5208 16.4271 71.75 16.7812C71.9792 17.1146 72.1771 17.5625 72.3438 18.125C72.5104 18.6875 72.6354 19.3646 72.7188 20.1562C72.8021 20.9271 72.8125 21.8542 72.75 22.9375C72.3125 22.9792 71.9167 23.0208 71.5625 23.0625C71.2292 23.1042 70.9479 23.1354 70.7188 23.1562C70.4479 23.1979 70.1979 23.2188 69.9688 23.2188L69.125 23.3125C68.8333 23.3542 68.4688 23.3958 68.0312 23.4375C67.6146 23.4583 67.1042 23.5 66.5 23.5625C67.375 22.8542 67.9375 22.2396 68.1875 21.7188C68.4583 21.1771 68.5729 20.7292 68.5312 20.375C68.4896 19.9792 68.3021 19.6354 67.9688 19.3438C67.5729 19.1146 67.1458 19.0312 66.6875 19.0938C66.2917 19.1354 65.8333 19.3125 65.3125 19.625C64.7917 19.9375 64.2396 20.5208 63.6562 21.375C63.6979 22.7083 63.7396 23.8125 63.7812 24.6875C63.8438 25.5625 63.8958 26.2708 63.9375 26.8125C64 27.4375 64.0521 27.9271 64.0938 28.2812C64.1562 28.5938 64.2812 28.9271 64.4688 29.2812C64.6146 29.5729 64.8229 29.8958 65.0938 30.25C65.3646 30.6042 65.7188 30.9583 66.1562 31.3125C65.2396 31.2708 64.4896 31.2708 63.9062 31.3125C63.5521 31.3333 63.2396 31.3542 62.9688 31.375C62.6771 31.4167 62.3646 31.4583 62.0312 31.5C61.7396 31.5417 61.3958 31.5833 61 31.625C60.625 31.6875 60.2083 31.75 59.75 31.8125C59.9167 31.5833 60.0521 31.3125 60.1562 31C60.2604 30.7083 60.3438 30.4271 60.4062 30.1562C60.4896 29.8438 60.5521 29.5208 60.5938 29.1875C60.6146 28.8958 60.625 28.4583 60.625 27.875C60.6458 27.2917 60.6354 26.6354 60.5938 25.9062C60.5729 25.1562 60.5417 24.3854 60.5 23.5938C60.4583 22.7812 60.4062 22.0208 60.3438 21.3125C60.2812 20.6042 60.2083 19.9896 60.125 19.4688C60.0625 18.9271 59.9896 18.5521 59.9062 18.3438C59.8021 18.0938 59.6771 17.8438 59.5312 17.5938C59.4062 17.3646 59.25 17.125 59.0625 16.875C58.875 16.6042 58.6667 16.3229 58.4375 16.0312Z" fill="#FEFEFE"/>
</svg>
